<svg version="1.1" viewBox="0.0 0.0 861.8320209973754 605.6666666666666" fill="none" stroke="none" stroke-linecap="square" stroke-miterlimit="10" xmlns:xlink="http://www.w3.org/1999/xlink" xmlns="http://www.w3.org/2000/svg"><clipPath id="p.0"><path d="m0 0l861.83203 0l0 605.6667l-861.83203 0l0 -605.6667z" clip-rule="nonzero"/></clipPath><g clip-path="url(#p.0)"><path fill="#000000" fill-opacity="0.0" d="m0 0l861.83203 0l0 605.6667l-861.83203 0z" fill-rule="evenodd"/><path fill="#000000" fill-opacity="0.0" d="m51.48294 75.80971l0 0c0 -7.375389 5.9789352 -13.354328 13.354332 -13.354328l81.70078 0c3.5417938 0 6.9385223 1.406971 9.442947 3.911396c2.5044098 2.5044174 3.9113922 5.901146 3.9113922 9.442932l0 0l0 0c0 7.3753967 -5.978943 13.354332 -13.35434 13.354332l-81.70078 0c-7.3753967 0 -13.354332 -5.9789352 -13.354332 -13.354332z" fill-rule="evenodd"/><path stroke="#000000" stroke-width="1.0" stroke-linejoin="round" stroke-linecap="butt" d="m51.48294 75.80971l0 0c0 -7.375389 5.9789352 -13.354328 13.354332 -13.354328l81.70078 0c3.5417938 0 6.9385223 1.406971 9.442947 3.911396c2.5044098 2.5044174 3.9113922 5.901146 3.9113922 9.442932l0 0l0 0c0 7.3753967 -5.978943 13.354332 -13.35434 13.354332l-81.70078 0c-7.3753967 0 -13.354332 -5.9789352 -13.354332 -13.354332z" fill-rule="evenodd"/><path fill="#000000" d="m76.50304 81.94971l-1.515625 0l0 -9.703125q-0.5625 0.515625 -1.453125 1.046875q-0.890625 0.53125 -1.59375 0.78125l0 -1.46875q1.28125 -0.59375 2.234375 -1.453125q0.953125 -0.859375 1.34375 -1.65625l0.984375 0l0 12.453125zm3.71521 -2.6875l1.515625 -0.234375q0.125 0.90625 0.703125 1.390625q0.578125 0.484375 1.609375 0.484375q1.0625 0 1.5625 -0.421875q0.515625 -0.4375 0.515625 -1.015625q0 -0.515625 -0.453125 -0.8125q-0.3125 -0.203125 -1.5625 -0.515625q-1.671875 -0.421875 -2.328125 -0.71875q-0.640625 -0.3125 -0.984375 -0.859375q-0.328125 -0.546875 -0.328125 -1.203125q0 -0.609375 0.28125 -1.109375q0.28125 -0.515625 0.75 -0.859375q0.359375 -0.265625 0.96875 -0.4375q0.609375 -0.1875 1.3125 -0.1875q1.0625 0 1.859375 0.3125q0.796875 0.296875 1.171875 0.828125q0.390625 0.515625 0.53125 1.375l-1.484375 0.203125q-0.109375 -0.6875 -0.59375 -1.078125q-0.484375 -0.390625 -1.375 -0.390625q-1.046875 0 -1.5 0.34375q-0.4375 0.34375 -0.4375 0.8125q0 0.296875 0.171875 0.53125q0.1875 0.25 0.59375 0.40625q0.21875 0.09375 1.34375 0.390625q1.609375 0.4375 2.25 0.71875q0.640625 0.265625 1.0 0.796875q0.375 0.515625 0.375 1.296875q0 0.765625 -0.453125 1.4375q-0.4375 0.671875 -1.28125 1.046875q-0.828125 0.359375 -1.890625 0.359375q-1.75 0 -2.671875 -0.71875q-0.921875 -0.734375 -1.171875 -2.171875zm12.6015625 1.328125l0.21875 1.34375q-0.640625 0.140625 -1.15625 0.140625q-0.828125 0 -1.28125 -0.265625q-0.453125 -0.265625 -0.640625 -0.6875q-0.1875 -0.4375 -0.1875 -1.796875l0 -5.171875l-1.125 0l0 -1.1875l1.125 0l0 -2.21875l1.515625 -0.921875l0 3.140625l1.53125 0l0 1.1875l-1.53125 0l0 5.25q0 0.65625 0.078125 0.84375q0.078125 0.1875 0.25 0.296875q0.1875 0.109375 0.53125 0.109375q0.25 0 0.671875 -0.0625zm6.5036316 1.359375l0 -12.40625l4.671875 0q1.234375 0 1.890625 0.125q0.90625 0.140625 1.515625 0.578125q0.625 0.421875 1.0 1.203125q0.390625 0.765625 0.390625 1.6875q0 1.578125 -1.015625 2.671875q-1.0 1.09375 -3.640625 1.09375l-3.171875 0l0 5.046875l-1.640625 0zm1.640625 -6.5l3.203125 0q1.59375 0 2.25 -0.59375q0.671875 -0.59375 0.671875 -1.671875q0 -0.78125 -0.390625 -1.328125q-0.390625 -0.5625 -1.03125 -0.734375q-0.421875 -0.109375 -1.53125 -0.109375l-3.171875 0l0 4.4375zm9.682724 6.5l0 -12.40625l1.515625 0l0 12.40625l-1.515625 0zm9.740387 -1.109375q-0.84375 0.71875 -1.625 1.015625q-0.78125 0.296875 -1.671875 0.296875q-1.484375 0 -2.28125 -0.71875q-0.796875 -0.734375 -0.796875 -1.859375q0 -0.65625 0.296875 -1.203125q0.3125 -0.546875 0.796875 -0.875q0.484375 -0.328125 1.09375 -0.5q0.4375 -0.109375 1.34375 -0.21875q1.84375 -0.21875 2.71875 -0.53125q0.015625 -0.3125 0.015625 -0.390625q0 -0.9375 -0.4375 -1.3125q-0.578125 -0.515625 -1.734375 -0.515625q-1.078125 0 -1.59375 0.375q-0.5 0.375 -0.75 1.328125l-1.484375 -0.203125q0.203125 -0.953125 0.65625 -1.53125q0.46875 -0.59375 1.34375 -0.90625q0.890625 -0.328125 2.046875 -0.328125q1.15625 0 1.875 0.28125q0.71875 0.265625 1.046875 0.671875q0.34375 0.40625 0.484375 1.03125q0.078125 0.390625 0.078125 1.40625l0 2.03125q0 2.125 0.09375 2.6875q0.09375 0.5625 0.390625 1.078125l-1.59375 0q-0.234375 -0.46875 -0.3125 -1.109375zm-0.125 -3.40625q-0.828125 0.34375 -2.484375 0.578125q-0.9375 0.140625 -1.328125 0.3125q-0.390625 0.171875 -0.609375 0.5q-0.203125 0.3125 -0.203125 0.71875q0 0.609375 0.453125 1.015625q0.46875 0.40625 1.359375 0.40625q0.875 0 1.5625 -0.390625q0.6875 -0.390625 1.015625 -1.046875q0.234375 -0.515625 0.234375 -1.53125l0 -0.5625zm9.762085 1.21875l1.5 0.203125q-0.234375 1.546875 -1.25 2.421875q-1.015625 0.875 -2.484375 0.875q-1.84375 0 -2.96875 -1.203125q-1.125 -1.203125 -1.125 -3.453125q0 -1.46875 0.484375 -2.546875q0.484375 -1.09375 1.46875 -1.640625q0.984375 -0.546875 2.140625 -0.546875q1.46875 0 2.390625 0.75q0.9375 0.734375 1.203125 2.09375l-1.484375 0.21875q-0.203125 -0.890625 -0.75 -1.34375q-0.53125 -0.46875 -1.296875 -0.46875q-1.140625 0 -1.875 0.828125q-0.71875 0.828125 -0.71875 2.609375q0 1.8125 0.6875 2.640625q0.703125 0.8125 1.828125 0.8125q0.890625 0 1.484375 -0.546875q0.609375 -0.5625 0.765625 -1.703125zm8.9609375 0.40625l1.5625 0.1875q-0.359375 1.390625 -1.375 2.15625q-1.0 0.75 -2.5625 0.75q-1.984375 0 -3.140625 -1.203125q-1.140625 -1.21875 -1.140625 -3.421875q0 -2.265625 1.15625 -3.515625q1.171875 -1.25 3.03125 -1.25q1.8125 0 2.953125 1.234375q1.140625 1.21875 1.140625 3.4375q0 0.140625 -0.015625 0.40625l-6.703125 0q0.09375 1.484375 0.84375 2.28125q0.75 0.78125 1.875 0.78125q0.84375 0 1.4375 -0.4375q0.59375 -0.4375 0.9375 -1.40625zm-5.0 -2.46875l5.015625 0q-0.109375 -1.125 -0.578125 -1.703125q-0.734375 -0.875 -1.890625 -0.875q-1.046875 0 -1.765625 0.703125q-0.703125 0.703125 -0.78125 1.875z" fill-rule="nonzero"/><path fill="#000000" fill-opacity="0.0" d="m51.48294 129.22704l0 0c0 -7.3753967 5.9789352 -13.354332 13.354332 -13.354332l81.70078 0c3.5417938 0 6.9385223 1.4069672 9.442947 3.9113922c2.5044098 2.504425 3.9113922 5.901146 3.9113922 9.44294l0 0l0 0c0 7.3753967 -5.978943 13.354324 -13.35434 13.354324l-81.70078 0c-7.3753967 0 -13.354332 -5.9789276 -13.354332 -13.354324z" fill-rule="evenodd"/><path stroke="#000000" stroke-width="1.0" stroke-linejoin="round" stroke-linecap="butt" d="m51.48294 129.22704l0 0c0 -7.3753967 5.9789352 -13.354332 13.354332 -13.354332l81.70078 0c3.5417938 0 6.9385223 1.4069672 9.442947 3.9113922c2.5044098 2.504425 3.9113922 5.901146 3.9113922 9.44294l0 0l0 0c0 7.3753967 -5.978943 13.354324 -13.35434 13.354324l-81.70078 0c-7.3753967 0 -13.354332 -5.9789276 -13.354332 -13.354324z" fill-rule="evenodd"/><path fill="#000000" d="m72.6259 128.64828q-0.953125 -0.359375 -1.40625 -1.0q-0.453125 -0.640625 -0.453125 -1.53125q0 -1.359375 0.96875 -2.28125q0.96875 -0.921875 2.59375 -0.921875q1.625 0 2.609375 0.953125q1.0 0.9375 1.0 2.28125q0 0.875 -0.453125 1.515625q-0.453125 0.625 -1.375 0.984375q1.140625 0.359375 1.734375 1.1875q0.59375 0.828125 0.59375 1.984375q0 1.59375 -1.125 2.6875q-1.125 1.078125 -2.96875 1.078125q-1.828125 0 -2.953125 -1.09375q-1.125 -1.09375 -1.125 -2.71875q0 -1.203125 0.609375 -2.015625q0.609375 -0.828125 1.75 -1.109375zm-0.296875 -2.59375q0 0.890625 0.5625 1.453125q0.5625 0.546875 1.46875 0.546875q0.875 0 1.4375 -0.546875q0.5625 -0.5625 0.5625 -1.359375q0 -0.84375 -0.578125 -1.40625q-0.578125 -0.578125 -1.4375 -0.578125q-0.875 0 -1.453125 0.5625q-0.5625 0.5625 -0.5625 1.328125zm-0.5 5.734375q0 0.65625 0.3125 1.265625q0.3125 0.609375 0.921875 0.9375q0.609375 0.328125 1.3125 0.328125q1.078125 0 1.78125 -0.6875q0.71875 -0.703125 0.71875 -1.796875q0 -1.09375 -0.734375 -1.8125q-0.71875 -0.71875 -1.828125 -0.71875q-1.0625 0 -1.78125 0.71875q-0.703125 0.703125 -0.703125 1.765625zm11.84021 2.21875l0.21875 1.34375q-0.640625 0.140625 -1.15625 0.140625q-0.828125 0 -1.28125 -0.265625q-0.453125 -0.265625 -0.640625 -0.6875q-0.1875 -0.4375 -0.1875 -1.796875l0 -5.171875l-1.125 0l0 -1.1875l1.125 0l0 -2.21875l1.515625 -0.921875l0 3.140625l1.53125 0l0 1.1875l-1.53125 0l0 5.25q0 0.65625 0.078125 0.84375q0.078125 0.1875 0.25 0.296875q0.1875 0.109375 0.53125 0.109375q0.25 0 0.671875 -0.0625zm1.4861908 1.359375l0 -12.40625l1.53125 0l0 4.453125q1.0625 -1.234375 2.6875 -1.234375q1.0 0 1.734375 0.390625q0.734375 0.390625 1.046875 1.09375q0.328125 0.6875 0.328125 2.015625l0 5.6875l-1.53125 0l0 -5.6875q0 -1.15625 -0.5 -1.671875q-0.484375 -0.515625 -1.390625 -0.515625q-0.6875 0 -1.28125 0.359375q-0.59375 0.34375 -0.84375 0.953125q-0.25 0.59375 -0.25 1.640625l0 4.921875l-1.53125 0zm14.654526 0l0 -12.40625l4.671875 0q1.234375 0 1.890625 0.125q0.90625 0.140625 1.515625 0.578125q0.625 0.421875 1.0 1.203125q0.390625 0.765625 0.390625 1.6875q0 1.578125 -1.015625 2.671875q-1.0 1.09375 -3.640625 1.09375l-3.171875 0l0 5.046875l-1.640625 0zm1.640625 -6.5l3.203125 0q1.59375 0 2.25 -0.59375q0.671875 -0.59375 0.671875 -1.671875q0 -0.78125 -0.390625 -1.328125q-0.390625 -0.5625 -1.03125 -0.734375q-0.421875 -0.109375 -1.53125 -0.109375l-3.171875 0l0 4.4375zm9.682724 6.5l0 -12.40625l1.515625 0l0 12.40625l-1.515625 0zm9.740387 -1.109375q-0.84375 0.71875 -1.625 1.015625q-0.78125 0.296875 -1.671875 0.296875q-1.484375 0 -2.28125 -0.71875q-0.796875 -0.734375 -0.796875 -1.859375q0 -0.65625 0.296875 -1.203125q0.3125 -0.546875 0.796875 -0.875q0.484375 -0.328125 1.09375 -0.5q0.4375 -0.109375 1.34375 -0.21875q1.84375 -0.21875 2.71875 -0.53125q0.015625 -0.3125 0.015625 -0.390625q0 -0.9375 -0.4375 -1.3125q-0.578125 -0.515625 -1.734375 -0.515625q-1.078125 0 -1.59375 0.375q-0.5 0.375 -0.75 1.328125l-1.484375 -0.203125q0.203125 -0.953125 0.65625 -1.53125q0.46875 -0.59375 1.34375 -0.90625q0.890625 -0.328125 2.046875 -0.328125q1.15625 0 1.875 0.28125q0.71875 0.265625 1.046875 0.671875q0.34375 0.40625 0.484375 1.03125q0.078125 0.390625 0.078125 1.40625l0 2.03125q0 2.125 0.09375 2.6875q0.09375 0.5625 0.390625 1.078125l-1.59375 0q-0.234375 -0.46875 -0.3125 -1.109375zm-0.125 -3.40625q-0.828125 0.34375 -2.484375 0.578125q-0.9375 0.140625 -1.328125 0.3125q-0.390625 0.171875 -0.609375 0.5q-0.203125 0.3125 -0.203125 0.71875q0 0.609375 0.453125 1.015625q0.46875 0.40625 1.359375 0.40625q0.875 0 1.5625 -0.390625q0.6875 -0.390625 1.015625 -1.046875q0.234375 -0.515625 0.234375 -1.53125l0 -0.5625zm9.762085 1.21875l1.5 0.203125q-0.234375 1.546875 -1.25 2.421875q-1.015625 0.875 -2.484375 0.875q-1.84375 0 -2.96875 -1.203125q-1.125 -1.203125 -1.125 -3.453125q0 -1.46875 0.484375 -2.546875q0.484375 -1.09375 1.46875 -1.640625q0.984375 -0.546875 2.140625 -0.546875q1.46875 0 2.390625 0.75q0.9375 0.734375 1.203125 2.09375l-1.484375 0.21875q-0.203125 -0.890625 -0.75 -1.34375q-0.53125 -0.46875 -1.296875 -0.46875q-1.140625 0 -1.875 0.828125q-0.71875 0.828125 -0.71875 2.609375q0 1.8125 0.6875 2.640625q0.703125 0.8125 1.828125 0.8125q0.890625 0 1.484375 -0.546875q0.609375 -0.5625 0.765625 -1.703125zm8.9609375 0.40625l1.5625 0.1875q-0.359375 1.390625 -1.375 2.15625q-1.0 0.75 -2.5625 0.75q-1.984375 0 -3.140625 -1.203125q-1.140625 -1.21875 -1.140625 -3.421875q0 -2.265625 1.15625 -3.515625q1.171875 -1.25 3.03125 -1.25q1.8125 0 2.953125 1.234375q1.140625 1.21875 1.140625 3.4375q0 0.140625 -0.015625 0.40625l-6.703125 0q0.09375 1.484375 0.84375 2.28125q0.75 0.78125 1.875 0.78125q0.84375 0 1.4375 -0.4375q0.59375 -0.4375 0.9375 -1.40625zm-5.0 -2.46875l5.015625 0q-0.109375 -1.125 -0.578125 -1.703125q-0.734375 -0.875 -1.890625 -0.875q-1.046875 0 -1.765625 0.703125q-0.703125 0.703125 -0.78125 1.875z" fill-rule="nonzero"/><path fill="#000000" fill-opacity="0.0" d="m268.30185 102.51837l0 0c0 -7.375389 5.9789124 -13.354332 13.354309 -13.354332l81.700806 0c3.5417786 0 6.938507 1.4069748 9.442932 3.9113922c2.504425 2.504425 3.911377 5.9011536 3.911377 9.44294l0 0l0 0c0 7.3753967 -5.9789124 13.354332 -13.354309 13.354332l-81.700806 0c-7.3753967 0 -13.354309 -5.9789352 -13.354309 -13.354332z" fill-rule="evenodd"/><path stroke="#000000" stroke-width="1.0" stroke-linejoin="round" stroke-linecap="butt" d="m268.30185 102.51837l0 0c0 -7.375389 5.9789124 -13.354332 13.354309 -13.354332l81.700806 0c3.5417786 0 6.938507 1.4069748 9.442932 3.9113922c2.504425 2.504425 3.911377 5.9011536 3.911377 9.44294l0 0l0 0c0 7.3753967 -5.9789124 13.354332 -13.354309 13.354332l-81.700806 0c-7.3753967 0 -13.354309 -5.9789352 -13.354309 -13.354332z" fill-rule="evenodd"/><path fill="#000000" fill-opacity="0.0" d="m159.8924 75.80971l54.204712 0l0 26.708664l54.204742 0" fill-rule="evenodd"/><path stroke="#000000" stroke-width="1.0" stroke-linejoin="round" stroke-linecap="butt" d="m159.8924 75.80971l54.204712 0l0 26.708664l54.204742 0" fill-rule="evenodd"/><path fill="#000000" fill-opacity="0.0" d="m159.8924 129.22704l54.204712 0l0 -26.708664l54.204742 0" fill-rule="evenodd"/><path stroke="#000000" stroke-width="1.0" stroke-linejoin="round" stroke-linecap="butt" d="m159.8924 129.22704l54.204712 0l0 -26.708664l54.204742 0" fill-rule="evenodd"/><path fill="#000000" fill-opacity="0.0" d="m51.48294 209.35301l0 0c0 -7.3753815 5.9789352 -13.354324 13.354332 -13.354324l81.70078 0c3.5417938 0 6.9385223 1.4069672 9.442947 3.9113922c2.5044098 2.504425 3.9113922 5.9011536 3.9113922 9.442932l0 0l0 0c0 7.3753967 -5.978943 13.35434 -13.35434 13.35434l-81.70078 0c-7.3753967 0 -13.354332 -5.978943 -13.354332 -13.35434z" fill-rule="evenodd"/><path stroke="#000000" stroke-width="1.0" stroke-linejoin="round" stroke-linecap="butt" d="m51.48294 209.35301l0 0c0 -7.3753815 5.9789352 -13.354324 13.354332 -13.354324l81.70078 0c3.5417938 0 6.9385223 1.4069672 9.442947 3.9113922c2.5044098 2.504425 3.9113922 5.9011536 3.9113922 9.442932l0 0l0 0c0 7.3753967 -5.978943 13.35434 -13.35434 13.35434l-81.70078 0c-7.3753967 0 -13.354332 -5.978943 -13.354332 -13.35434z" fill-rule="evenodd"/><path fill="#000000" d="m75.15715 215.49301l0 -2.96875l-5.375 0l0 -1.390625l5.65625 -8.046875l1.25 0l0 8.046875l1.671875 0l0 1.390625l-1.671875 0l0 2.96875l-1.53125 0zm0 -4.359375l0 -5.59375l-3.875 5.59375l3.875 0zm8.512085 3.0l0.21875 1.34375q-0.640625 0.140625 -1.15625 0.140625q-0.828125 0 -1.28125 -0.265625q-0.453125 -0.265625 -0.640625 -0.6875q-0.1875 -0.4375 -0.1875 -1.796875l0 -5.171875l-1.125 0l0 -1.1875l1.125 0l0 -2.21875l1.515625 -0.921875l0 3.140625l1.53125 0l0 1.1875l-1.53125 0l0 5.25q0 0.65625 0.078125 0.84375q0.078125 0.1875 0.25 0.296875q0.1875 0.109375 0.53125 0.109375q0.25 0 0.671875 -0.0625zm1.4861908 1.359375l0 -12.40625l1.53125 0l0 4.453125q1.0625 -1.234375 2.6875 -1.234375q1.0 0 1.734375 0.390625q0.734375 0.390625 1.046875 1.09375q0.328125 0.6875 0.328125 2.015625l0 5.6875l-1.53125 0l0 -5.6875q0 -1.15625 -0.5 -1.671875q-0.484375 -0.515625 -1.390625 -0.515625q-0.6875 0 -1.28125 0.359375q-0.59375 0.34375 -0.84375 0.953125q-0.25 0.59375 -0.25 1.640625l0 4.921875l-1.53125 0zm14.654526 0l0 -12.40625l4.671875 0q1.234375 0 1.890625 0.125q0.90625 0.140625 1.515625 0.578125q0.625 0.421875 1.0 1.203125q0.390625 0.765625 0.390625 1.6875q0 1.578125 -1.015625 2.671875q-1.0 1.09375 -3.640625 1.09375l-3.171875 0l0 5.046875l-1.640625 0zm1.640625 -6.5l3.203125 0q1.59375 0 2.25 -0.59375q0.671875 -0.59375 0.671875 -1.671875q0 -0.78125 -0.390625 -1.328125q-0.390625 -0.5625 -1.03125 -0.734375q-0.421875 -0.109375 -1.53125 -0.109375l-3.171875 0l0 4.4375zm9.682724 6.5l0 -12.40625l1.515625 0l0 12.40625l-1.515625 0zm9.740387 -1.109375q-0.84375 0.71875 -1.625 1.015625q-0.78125 0.296875 -1.671875 0.296875q-1.484375 0 -2.28125 -0.71875q-0.796875 -0.734375 -0.796875 -1.859375q0 -0.65625 0.296875 -1.203125q0.3125 -0.546875 0.796875 -0.875q0.484375 -0.328125 1.09375 -0.5q0.4375 -0.109375 1.34375 -0.21875q1.84375 -0.21875 2.71875 -0.53125q0.015625 -0.3125 0.015625 -0.390625q0 -0.9375 -0.4375 -1.3125q-0.578125 -0.515625 -1.734375 -0.515625q-1.078125 0 -1.59375 0.375q-0.5 0.375 -0.75 1.328125l-1.484375 -0.203125q0.203125 -0.953125 0.65625 -1.53125q0.46875 -0.59375 1.34375 -0.90625q0.890625 -0.328125 2.046875 -0.328125q1.15625 0 1.875 0.28125q0.71875 0.265625 1.046875 0.671875q0.34375 0.40625 0.484375 1.03125q0.078125 0.390625 0.078125 1.40625l0 2.03125q0 2.125 0.09375 2.6875q0.09375 0.5625 0.390625 1.078125l-1.59375 0q-0.234375 -0.46875 -0.3125 -1.109375zm-0.125 -3.40625q-0.828125 0.34375 -2.484375 0.578125q-0.9375 0.140625 -1.328125 0.3125q-0.390625 0.171875 -0.609375 0.5q-0.203125 0.3125 -0.203125 0.71875q0 0.609375 0.453125 1.015625q0.46875 0.40625 1.359375 0.40625q0.875 0 1.5625 -0.390625q0.6875 -0.390625 1.015625 -1.046875q0.234375 -0.515625 0.234375 -1.53125l0 -0.5625zm9.762085 1.21875l1.5 0.203125q-0.234375 1.546875 -1.25 2.421875q-1.015625 0.875 -2.484375 0.875q-1.84375 0 -2.96875 -1.203125q-1.125 -1.203125 -1.125 -3.453125q0 -1.46875 0.484375 -2.546875q0.484375 -1.09375 1.46875 -1.640625q0.984375 -0.546875 2.140625 -0.546875q1.46875 0 2.390625 0.75q0.9375 0.734375 1.203125 2.09375l-1.484375 0.21875q-0.203125 -0.890625 -0.75 -1.34375q-0.53125 -0.46875 -1.296875 -0.46875q-1.140625 0 -1.875 0.828125q-0.71875 0.828125 -0.71875 2.609375q0 1.8125 0.6875 2.640625q0.703125 0.8125 1.828125 0.8125q0.890625 0 1.484375 -0.546875q0.609375 -0.5625 0.765625 -1.703125zm8.9609375 0.40625l1.5625 0.1875q-0.359375 1.390625 -1.375 2.15625q-1.0 0.75 -2.5625 0.75q-1.984375 0 -3.140625 -1.203125q-1.140625 -1.21875 -1.140625 -3.421875q0 -2.265625 1.15625 -3.515625q1.171875 -1.25 3.03125 -1.25q1.8125 0 2.953125 1.234375q1.140625 1.21875 1.140625 3.4375q0 0.140625 -0.015625 0.40625l-6.703125 0q0.09375 1.484375 0.84375 2.28125q0.75 0.78125 1.875 0.78125q0.84375 0 1.4375 -0.4375q0.59375 -0.4375 0.9375 -1.40625zm-5.0 -2.46875l5.015625 0q-0.109375 -1.125 -0.578125 -1.703125q-0.734375 -0.875 -1.890625 -0.875q-1.046875 0 -1.765625 0.703125q-0.703125 0.703125 -0.78125 1.875z" fill-rule="nonzero"/><path fill="#000000" fill-opacity="0.0" d="m51.48294 262.77036l0 0c0 -7.375412 5.9789352 -13.35434 13.354332 -13.35434l81.70078 0c3.5417938 0 6.9385223 1.4069672 9.442947 3.9113922c2.5044098 2.504425 3.9113922 5.9011383 3.9113922 9.442947l0 0l0 0c0 7.375366 -5.978943 13.354309 -13.35434 13.354309l-81.70078 0c-7.3753967 0 -13.354332 -5.978943 -13.354332 -13.354309z" fill-rule="evenodd"/><path stroke="#000000" stroke-width="1.0" stroke-linejoin="round" stroke-linecap="butt" d="m51.48294 262.77036l0 0c0 -7.375412 5.9789352 -13.35434 13.354332 -13.35434l81.70078 0c3.5417938 0 6.9385223 1.4069672 9.442947 3.9113922c2.5044098 2.504425 3.9113922 5.9011383 3.9113922 9.442947l0 0l0 0c0 7.375366 -5.978943 13.354309 -13.35434 13.354309l-81.70078 0c-7.3753967 0 -13.354332 -5.978943 -13.354332 -13.354309z" fill-rule="evenodd"/><path fill="#000000" d="m70.28215 265.66034l1.59375 -0.140625q0.1875 1.171875 0.828125 1.765625q0.65625 0.578125 1.5625 0.578125q1.09375 0 1.859375 -0.828125q0.765625 -0.828125 0.765625 -2.1875q0 -1.3125 -0.734375 -2.0625q-0.734375 -0.75 -1.921875 -0.75q-0.734375 0 -1.328125 0.34375q-0.578125 0.328125 -0.921875 0.859375l-1.4375 -0.1875l1.203125 -6.375l6.171875 0l0 1.453125l-4.953125 0l-0.671875 3.328125q1.125 -0.765625 2.34375 -0.765625q1.625 0 2.734375 1.125q1.125 1.125 1.125 2.890625q0 1.6875 -0.96875 2.90625q-1.203125 1.515625 -3.265625 1.515625q-1.6875 0 -2.765625 -0.953125q-1.0625 -0.953125 -1.21875 -2.515625zm13.387085 1.890625l0.21875 1.34375q-0.640625 0.140625 -1.15625 0.140625q-0.828125 0 -1.28125 -0.265625q-0.453125 -0.265625 -0.640625 -0.6875q-0.1875 -0.4375 -0.1875 -1.796875l0 -5.171875l-1.125 0l0 -1.1875l1.125 0l0 -2.21875l1.515625 -0.921875l0 3.140625l1.53125 0l0 1.1875l-1.53125 0l0 5.25q0 0.65625 0.078125 0.84375q0.078125 0.1875 0.25 0.296875q0.1875 0.109375 0.53125 0.109375q0.25 0 0.671875 -0.0625zm1.4861908 1.359375l0 -12.40625l1.53125 0l0 4.453125q1.0625 -1.234375 2.6875 -1.234375q1.0 0 1.734375 0.390625q0.734375 0.390625 1.046875 1.09375q0.328125 0.6875 0.328125 2.015625l0 5.6875l-1.53125 0l0 -5.6875q0 -1.15625 -0.5 -1.671875q-0.484375 -0.515625 -1.390625 -0.515625q-0.6875 0 -1.28125 0.359375q-0.59375 0.34375 -0.84375 0.953125q-0.25 0.59375 -0.25 1.640625l0 4.921875l-1.53125 0zm14.654526 0l0 -12.40625l4.671875 0q1.234375 0 1.890625 0.125q0.90625 0.140625 1.515625 0.578125q0.625 0.421875 1.0 1.203125q0.390625 0.765625 0.390625 1.6875q0 1.578125 -1.015625 2.671875q-1.0 1.09375 -3.640625 1.09375l-3.171875 0l0 5.046875l-1.640625 0zm1.640625 -6.5l3.203125 0q1.59375 0 2.25 -0.59375q0.671875 -0.59375 0.671875 -1.671875q0 -0.78125 -0.390625 -1.328125q-0.390625 -0.5625 -1.03125 -0.734375q-0.421875 -0.109375 -1.53125 -0.109375l-3.171875 0l0 4.4375zm9.682724 6.5l0 -12.40625l1.515625 0l0 12.40625l-1.515625 0zm9.740387 -1.109375q-0.84375 0.71875 -1.625 1.015625q-0.78125 0.296875 -1.671875 0.296875q-1.484375 0 -2.28125 -0.71875q-0.796875 -0.734375 -0.796875 -1.859375q0 -0.65625 0.296875 -1.203125q0.3125 -0.546875 0.796875 -0.875q0.484375 -0.328125 1.09375 -0.5q0.4375 -0.109375 1.34375 -0.21875q1.84375 -0.21875 2.71875 -0.53125q0.015625 -0.3125 0.015625 -0.390625q0 -0.9375 -0.4375 -1.3125q-0.578125 -0.515625 -1.734375 -0.515625q-1.078125 0 -1.59375 0.375q-0.5 0.375 -0.75 1.328125l-1.484375 -0.203125q0.203125 -0.953125 0.65625 -1.53125q0.46875 -0.59375 1.34375 -0.90625q0.890625 -0.328125 2.046875 -0.328125q1.15625 0 1.875 0.28125q0.71875 0.265625 1.046875 0.671875q0.34375 0.40625 0.484375 1.03125q0.078125 0.390625 0.078125 1.40625l0 2.03125q0 2.125 0.09375 2.6875q0.09375 0.5625 0.390625 1.078125l-1.59375 0q-0.234375 -0.46875 -0.3125 -1.109375zm-0.125 -3.40625q-0.828125 0.34375 -2.484375 0.578125q-0.9375 0.140625 -1.328125 0.3125q-0.390625 0.171875 -0.609375 0.5q-0.203125 0.3125 -0.203125 0.71875q0 0.609375 0.453125 1.015625q0.46875 0.40625 1.359375 0.40625q0.875 0 1.5625 -0.390625q0.6875 -0.390625 1.015625 -1.046875q0.234375 -0.515625 0.234375 -1.53125l0 -0.5625zm9.762085 1.21875l1.5 0.203125q-0.234375 1.546875 -1.25 2.421875q-1.015625 0.875 -2.484375 0.875q-1.84375 0 -2.96875 -1.203125q-1.125 -1.203125 -1.125 -3.453125q0 -1.46875 0.484375 -2.546875q0.484375 -1.09375 1.46875 -1.640625q0.984375 -0.546875 2.140625 -0.546875q1.46875 0 2.390625 0.75q0.9375 0.734375 1.203125 2.09375l-1.484375 0.21875q-0.203125 -0.890625 -0.75 -1.34375q-0.53125 -0.46875 -1.296875 -0.46875q-1.140625 0 -1.875 0.828125q-0.71875 0.828125 -0.71875 2.609375q0 1.8125 0.6875 2.640625q0.703125 0.8125 1.828125 0.8125q0.890625 0 1.484375 -0.546875q0.609375 -0.5625 0.765625 -1.703125zm8.9609375 0.40625l1.5625 0.1875q-0.359375 1.390625 -1.375 2.15625q-1.0 0.75 -2.5625 0.75q-1.984375 0 -3.140625 -1.203125q-1.140625 -1.21875 -1.140625 -3.421875q0 -2.265625 1.15625 -3.515625q1.171875 -1.25 3.03125 -1.25q1.8125 0 2.953125 1.234375q1.140625 1.21875 1.140625 3.4375q0 0.140625 -0.015625 0.40625l-6.703125 0q0.09375 1.484375 0.84375 2.28125q0.75 0.78125 1.875 0.78125q0.84375 0 1.4375 -0.4375q0.59375 -0.4375 0.9375 -1.40625zm-5.0 -2.46875l5.015625 0q-0.109375 -1.125 -0.578125 -1.703125q-0.734375 -0.875 -1.890625 -0.875q-1.046875 0 -1.765625 0.703125q-0.703125 0.703125 -0.78125 1.875z" fill-rule="nonzero"/><path fill="#000000" fill-opacity="0.0" d="m268.30185 236.06168l0 0c0 -7.3753967 5.9789124 -13.354324 13.354309 -13.354324l81.700806 0c3.5417786 0 6.938507 1.4069672 9.442932 3.9113922c2.504425 2.504425 3.911377 5.9011536 3.911377 9.442932l0 0l0 0c0 7.3753967 -5.9789124 13.35434 -13.354309 13.35434l-81.700806 0c-7.3753967 0 -13.354309 -5.978943 -13.354309 -13.35434z" fill-rule="evenodd"/><path stroke="#000000" stroke-width="1.0" stroke-linejoin="round" stroke-linecap="butt" d="m268.30185 236.06168l0 0c0 -7.3753967 5.9789124 -13.354324 13.354309 -13.354324l81.700806 0c3.5417786 0 6.938507 1.4069672 9.442932 3.9113922c2.504425 2.504425 3.911377 5.9011536 3.911377 9.442932l0 0l0 0c0 7.3753967 -5.9789124 13.35434 -13.354309 13.35434l-81.700806 0c-7.3753967 0 -13.354309 -5.978943 -13.354309 -13.35434z" fill-rule="evenodd"/><path fill="#000000" fill-opacity="0.0" d="m159.8924 209.35301l54.204712 0l0 26.708664l54.204742 0" fill-rule="evenodd"/><path stroke="#000000" stroke-width="1.0" stroke-linejoin="round" stroke-linecap="butt" d="m159.8924 209.35301l54.204712 0l0 26.708664l54.204742 0" fill-rule="evenodd"/><path fill="#000000" fill-opacity="0.0" d="m159.8924 262.77036l54.204712 0l0 -26.70868l54.204742 0" fill-rule="evenodd"/><path stroke="#000000" stroke-width="1.0" stroke-linejoin="round" stroke-linecap="butt" d="m159.8924 262.77036l54.204712 0l0 -26.70868l54.204742 0" fill-rule="evenodd"/><path fill="#000000" fill-opacity="0.0" d="m51.48294 342.89633l0 0c0 -7.3753967 5.9789352 -13.35434 13.354332 -13.35434l81.70078 0c3.5417938 0 6.9385223 1.4069824 9.442947 3.9114075c2.5044098 2.504425 3.9113922 5.901123 3.9113922 9.442932l0 0l0 0c0 7.3753967 -5.978943 13.35434 -13.35434 13.35434l-81.70078 0c-7.3753967 0 -13.354332 -5.978943 -13.354332 -13.35434z" fill-rule="evenodd"/><path stroke="#000000" stroke-width="1.0" stroke-linejoin="round" stroke-linecap="butt" d="m51.48294 342.89633l0 0c0 -7.3753967 5.9789352 -13.35434 13.354332 -13.35434l81.70078 0c3.5417938 0 6.9385223 1.4069824 9.442947 3.9114075c2.5044098 2.504425 3.9113922 5.901123 3.9113922 9.442932l0 0l0 0c0 7.3753967 -5.978943 13.35434 -13.35434 13.35434l-81.70078 0c-7.3753967 0 -13.354332 -5.978943 -13.354332 -13.35434z" fill-rule="evenodd"/><path fill="#000000" d="m69.81973 345.75507l1.515625 -0.203125q0.265625 1.296875 0.890625 1.875q0.640625 0.5625 1.53125 0.5625q1.078125 0 1.8125 -0.734375q0.75 -0.75 0.75 -1.84375q0 -1.046875 -0.6875 -1.734375q-0.6875 -0.6875 -1.734375 -0.6875q-0.4375 0 -1.078125 0.171875l0.171875 -1.328125q0.140625 0.015625 0.234375 0.015625q0.984375 0 1.75 -0.5q0.78125 -0.515625 0.78125 -1.578125q0 -0.84375 -0.5625 -1.390625q-0.5625 -0.546875 -1.46875 -0.546875q-0.890625 0 -1.484375 0.5625q-0.578125 0.5625 -0.75 1.671875l-1.53125 -0.265625q0.28125 -1.53125 1.265625 -2.375q1.0 -0.84375 2.46875 -0.84375q1.015625 0 1.859375 0.4375q0.859375 0.4375 1.3125 1.1875q0.453125 0.75 0.453125 1.59375q0 0.8125 -0.4375 1.46875q-0.421875 0.65625 -1.265625 1.046875q1.09375 0.25 1.703125 1.0625q0.609375 0.796875 0.609375 2.0q0 1.609375 -1.1875 2.75q-1.171875 1.125 -2.984375 1.125q-1.640625 0 -2.71875 -0.96875q-1.078125 -0.96875 -1.21875 -2.53125zm10.02771 3.28125l0 -8.984375l1.375 0l0 1.359375q0.515625 -0.953125 0.953125 -1.25q0.453125 -0.3125 0.984375 -0.3125q0.78125 0 1.5625 0.484375l-0.515625 1.421875q-0.5625 -0.328125 -1.125 -0.328125q-0.5 0 -0.890625 0.296875q-0.390625 0.296875 -0.5625 0.828125q-0.265625 0.8125 -0.265625 1.78125l0 4.703125l-1.515625 0zm11.614151 0l0 -1.140625q-0.84375 1.34375 -2.515625 1.34375q-1.0625 0 -1.96875 -0.59375q-0.90625 -0.59375 -1.40625 -1.65625q-0.484375 -1.0625 -0.484375 -2.4375q0 -1.34375 0.4375 -2.4375q0.453125 -1.09375 1.34375 -1.671875q0.90625 -0.59375 2.015625 -0.59375q0.8125 0 1.4375 0.34375q0.640625 0.34375 1.046875 0.890625l0 -4.453125l1.515625 0l0 12.40625l-1.421875 0zm-4.8125 -4.484375q0 1.71875 0.71875 2.578125q0.734375 0.859375 1.734375 0.859375q0.984375 0 1.6875 -0.8125q0.703125 -0.828125 0.703125 -2.5q0 -1.84375 -0.71875 -2.703125q-0.703125 -0.859375 -1.75 -0.859375q-1.015625 0 -1.703125 0.828125q-0.671875 0.828125 -0.671875 2.609375zm13.638901 4.484375l0 -12.40625l4.671875 0q1.234375 0 1.890625 0.125q0.90625 0.140625 1.515625 0.578125q0.625 0.421875 1.0 1.203125q0.390625 0.765625 0.390625 1.6875q0 1.578125 -1.015625 2.671875q-1.0 1.09375 -3.640625 1.09375l-3.171875 0l0 5.046875l-1.640625 0zm1.640625 -6.5l3.203125 0q1.59375 0 2.25 -0.59375q0.671875 -0.59375 0.671875 -1.671875q0 -0.78125 -0.390625 -1.328125q-0.390625 -0.5625 -1.03125 -0.734375q-0.421875 -0.109375 -1.53125 -0.109375l-3.171875 0l0 4.4375zm9.682724 6.5l0 -12.40625l1.515625 0l0 12.40625l-1.515625 0zm9.740387 -1.109375q-0.84375 0.71875 -1.625 1.015625q-0.78125 0.296875 -1.671875 0.296875q-1.484375 0 -2.28125 -0.71875q-0.796875 -0.734375 -0.796875 -1.859375q0 -0.65625 0.296875 -1.203125q0.3125 -0.546875 0.796875 -0.875q0.484375 -0.328125 1.09375 -0.5q0.4375 -0.109375 1.34375 -0.21875q1.84375 -0.21875 2.71875 -0.53125q0.015625 -0.3125 0.015625 -0.390625q0 -0.9375 -0.4375 -1.3125q-0.578125 -0.515625 -1.734375 -0.515625q-1.078125 0 -1.59375 0.375q-0.5 0.375 -0.75 1.328125l-1.484375 -0.203125q0.203125 -0.953125 0.65625 -1.53125q0.46875 -0.59375 1.34375 -0.90625q0.890625 -0.328125 2.046875 -0.328125q1.15625 0 1.875 0.28125q0.71875 0.265625 1.046875 0.671875q0.34375 0.40625 0.484375 1.03125q0.078125 0.390625 0.078125 1.40625l0 2.03125q0 2.125 0.09375 2.6875q0.09375 0.5625 0.390625 1.078125l-1.59375 0q-0.234375 -0.46875 -0.3125 -1.109375zm-0.125 -3.40625q-0.828125 0.34375 -2.484375 0.578125q-0.9375 0.140625 -1.328125 0.3125q-0.390625 0.171875 -0.609375 0.5q-0.203125 0.3125 -0.203125 0.71875q0 0.609375 0.453125 1.015625q0.46875 0.40625 1.359375 0.40625q0.875 0 1.5625 -0.390625q0.6875 -0.390625 1.015625 -1.046875q0.234375 -0.515625 0.234375 -1.53125l0 -0.5625zm9.762085 1.21875l1.5 0.203125q-0.234375 1.546875 -1.25 2.421875q-1.015625 0.875 -2.484375 0.875q-1.84375 0 -2.96875 -1.203125q-1.125 -1.203125 -1.125 -3.453125q0 -1.46875 0.484375 -2.546875q0.484375 -1.09375 1.46875 -1.640625q0.984375 -0.546875 2.140625 -0.546875q1.46875 0 2.390625 0.75q0.9375 0.734375 1.203125 2.09375l-1.484375 0.21875q-0.203125 -0.890625 -0.75 -1.34375q-0.53125 -0.46875 -1.296875 -0.46875q-1.140625 0 -1.875 0.828125q-0.71875 0.828125 -0.71875 2.609375q0 1.8125 0.6875 2.640625q0.703125 0.8125 1.828125 0.8125q0.890625 0 1.484375 -0.546875q0.609375 -0.5625 0.765625 -1.703125zm8.9609375 0.40625l1.5625 0.1875q-0.359375 1.390625 -1.375 2.15625q-1.0 0.75 -2.5625 0.75q-1.984375 0 -3.140625 -1.203125q-1.140625 -1.21875 -1.140625 -3.421875q0 -2.265625 1.15625 -3.515625q1.171875 -1.25 3.03125 -1.25q1.8125 0 2.953125 1.234375q1.140625 1.21875 1.140625 3.4375q0 0.140625 -0.015625 0.40625l-6.703125 0q0.09375 1.484375 0.84375 2.28125q0.75 0.78125 1.875 0.78125q0.84375 0 1.4375 -0.4375q0.59375 -0.4375 0.9375 -1.40625zm-5.0 -2.46875l5.015625 0q-0.109375 -1.125 -0.578125 -1.703125q-0.734375 -0.875 -1.890625 -0.875q-1.046875 0 -1.765625 0.703125q-0.703125 0.703125 -0.78125 1.875z" fill-rule="nonzero"/><path fill="#000000" fill-opacity="0.0" d="m51.48294 396.31366l0 0c0 -7.3753967 5.9789352 -13.35434 13.354332 -13.35434l81.70078 0c3.5417938 0 6.9385223 1.4069824 9.442947 3.911377c2.5044098 2.504425 3.9113922 5.9011536 3.9113922 9.442963l0 0l0 0c0 7.3753967 -5.978943 13.354309 -13.35434 13.354309l-81.70078 0c-7.3753967 0 -13.354332 -5.9789124 -13.354332 -13.354309z" fill-rule="evenodd"/><path stroke="#000000" stroke-width="1.0" stroke-linejoin="round" stroke-linecap="butt" d="m51.48294 396.31366l0 0c0 -7.3753967 5.9789352 -13.35434 13.354332 -13.35434l81.70078 0c3.5417938 0 6.9385223 1.4069824 9.442947 3.911377c2.5044098 2.504425 3.9113922 5.9011536 3.9113922 9.442963l0 0l0 0c0 7.3753967 -5.978943 13.354309 -13.35434 13.354309l-81.70078 0c-7.3753967 0 -13.354332 -5.9789124 -13.354332 -13.354309z" fill-rule="evenodd"/><path fill="#000000" d="m78.1884 393.09427l-1.515625 0.109375q-0.203125 -0.890625 -0.578125 -1.296875q-0.609375 -0.65625 -1.515625 -0.65625q-0.734375 0 -1.28125 0.40625q-0.71875 0.53125 -1.140625 1.53125q-0.40625 1.0 -0.421875 2.875q0.546875 -0.84375 1.34375 -1.25q0.796875 -0.40625 1.65625 -0.40625q1.53125 0 2.59375 1.125q1.078125 1.125 1.078125 2.890625q0 1.171875 -0.515625 2.171875q-0.5 1.0 -1.375 1.546875q-0.875 0.53125 -2.0 0.53125q-1.90625 0 -3.109375 -1.40625q-1.1875 -1.40625 -1.1875 -4.609375q0 -3.609375 1.328125 -5.234375q1.15625 -1.421875 3.125 -1.421875q1.453125 0 2.390625 0.828125q0.9375 0.8125 1.125 2.265625zm-6.21875 5.34375q0 0.78125 0.328125 1.5q0.34375 0.71875 0.9375 1.09375q0.59375 0.375 1.265625 0.375q0.953125 0 1.640625 -0.765625q0.703125 -0.78125 0.703125 -2.125q0 -1.28125 -0.6875 -2.015625q-0.671875 -0.75 -1.71875 -0.75q-1.03125 0 -1.75 0.75q-0.71875 0.734375 -0.71875 1.9375zm11.699585 2.65625l0.21875 1.34375q-0.640625 0.140625 -1.15625 0.140625q-0.828125 0 -1.28125 -0.265625q-0.453125 -0.265625 -0.640625 -0.6875q-0.1875 -0.4375 -0.1875 -1.796875l0 -5.171875l-1.125 0l0 -1.1875l1.125 0l0 -2.21875l1.515625 -0.921875l0 3.140625l1.53125 0l0 1.1875l-1.53125 0l0 5.25q0 0.65625 0.078125 0.84375q0.078125 0.1875 0.25 0.296875q0.1875 0.109375 0.53125 0.109375q0.25 0 0.671875 -0.0625zm1.4861908 1.359375l0 -12.40625l1.53125 0l0 4.453125q1.0625 -1.234375 2.6875 -1.234375q1.0 0 1.734375 0.390625q0.734375 0.390625 1.046875 1.09375q0.328125 0.6875 0.328125 2.015625l0 5.6875l-1.53125 0l0 -5.6875q0 -1.15625 -0.5 -1.671875q-0.484375 -0.515625 -1.390625 -0.515625q-0.6875 0 -1.28125 0.359375q-0.59375 0.34375 -0.84375 0.953125q-0.25 0.59375 -0.25 1.640625l0 4.921875l-1.53125 0zm14.654526 0l0 -12.40625l4.671875 0q1.234375 0 1.890625 0.125q0.90625 0.140625 1.515625 0.578125q0.625 0.421875 1.0 1.203125q0.390625 0.765625 0.390625 1.6875q0 1.578125 -1.015625 2.671875q-1.0 1.09375 -3.640625 1.09375l-3.171875 0l0 5.046875l-1.640625 0zm1.640625 -6.5l3.203125 0q1.59375 0 2.25 -0.59375q0.671875 -0.59375 0.671875 -1.671875q0 -0.78125 -0.390625 -1.328125q-0.390625 -0.5625 -1.03125 -0.734375q-0.421875 -0.109375 -1.53125 -0.109375l-3.171875 0l0 4.4375zm9.682724 6.5l0 -12.40625l1.515625 0l0 12.40625l-1.515625 0zm9.740387 -1.109375q-0.84375 0.71875 -1.625 1.015625q-0.78125 0.296875 -1.671875 0.296875q-1.484375 0 -2.28125 -0.71875q-0.796875 -0.734375 -0.796875 -1.859375q0 -0.65625 0.296875 -1.203125q0.3125 -0.546875 0.796875 -0.875q0.484375 -0.328125 1.09375 -0.5q0.4375 -0.109375 1.34375 -0.21875q1.84375 -0.21875 2.71875 -0.53125q0.015625 -0.3125 0.015625 -0.390625q0 -0.9375 -0.4375 -1.3125q-0.578125 -0.515625 -1.734375 -0.515625q-1.078125 0 -1.59375 0.375q-0.5 0.375 -0.75 1.328125l-1.484375 -0.203125q0.203125 -0.953125 0.65625 -1.53125q0.46875 -0.59375 1.34375 -0.90625q0.890625 -0.328125 2.046875 -0.328125q1.15625 0 1.875 0.28125q0.71875 0.265625 1.046875 0.671875q0.34375 0.40625 0.484375 1.03125q0.078125 0.390625 0.078125 1.40625l0 2.03125q0 2.125 0.09375 2.6875q0.09375 0.5625 0.390625 1.078125l-1.59375 0q-0.234375 -0.46875 -0.3125 -1.109375zm-0.125 -3.40625q-0.828125 0.34375 -2.484375 0.578125q-0.9375 0.140625 -1.328125 0.3125q-0.390625 0.171875 -0.609375 0.5q-0.203125 0.3125 -0.203125 0.71875q0 0.609375 0.453125 1.015625q0.46875 0.40625 1.359375 0.40625q0.875 0 1.5625 -0.390625q0.6875 -0.390625 1.015625 -1.046875q0.234375 -0.515625 0.234375 -1.53125l0 -0.5625zm9.762085 1.21875l1.5 0.203125q-0.234375 1.546875 -1.25 2.421875q-1.015625 0.875 -2.484375 0.875q-1.84375 0 -2.96875 -1.203125q-1.125 -1.203125 -1.125 -3.453125q0 -1.46875 0.484375 -2.546875q0.484375 -1.09375 1.46875 -1.640625q0.984375 -0.546875 2.140625 -0.546875q1.46875 0 2.390625 0.75q0.9375 0.734375 1.203125 2.09375l-1.484375 0.21875q-0.203125 -0.890625 -0.75 -1.34375q-0.53125 -0.46875 -1.296875 -0.46875q-1.140625 0 -1.875 0.828125q-0.71875 0.828125 -0.71875 2.609375q0 1.8125 0.6875 2.640625q0.703125 0.8125 1.828125 0.8125q0.890625 0 1.484375 -0.546875q0.609375 -0.5625 0.765625 -1.703125zm8.9609375 0.40625l1.5625 0.1875q-0.359375 1.390625 -1.375 2.15625q-1.0 0.75 -2.5625 0.75q-1.984375 0 -3.140625 -1.203125q-1.140625 -1.21875 -1.140625 -3.421875q0 -2.265625 1.15625 -3.515625q1.171875 -1.25 3.03125 -1.25q1.8125 0 2.953125 1.234375q1.140625 1.21875 1.140625 3.4375q0 0.140625 -0.015625 0.40625l-6.703125 0q0.09375 1.484375 0.84375 2.28125q0.75 0.78125 1.875 0.78125q0.84375 0 1.4375 -0.4375q0.59375 -0.4375 0.9375 -1.40625zm-5.0 -2.46875l5.015625 0q-0.109375 -1.125 -0.578125 -1.703125q-0.734375 -0.875 -1.890625 -0.875q-1.046875 0 -1.765625 0.703125q-0.703125 0.703125 -0.78125 1.875z" fill-rule="nonzero"/><path fill="#000000" fill-opacity="0.0" d="m268.30185 369.60498l0 0c0 -7.3753967 5.9789124 -13.354309 13.354309 -13.354309l81.700806 0c3.5417786 0 6.938507 1.4069519 9.442932 3.911377c2.504425 2.504425 3.911377 5.9011536 3.911377 9.442932l0 0l0 0c0 7.3753967 -5.9789124 13.35434 -13.354309 13.35434l-81.700806 0c-7.3753967 0 -13.354309 -5.978943 -13.354309 -13.35434z" fill-rule="evenodd"/><path stroke="#000000" stroke-width="1.0" stroke-linejoin="round" stroke-linecap="butt" d="m268.30185 369.60498l0 0c0 -7.3753967 5.9789124 -13.354309 13.354309 -13.354309l81.700806 0c3.5417786 0 6.938507 1.4069519 9.442932 3.911377c2.504425 2.504425 3.911377 5.9011536 3.911377 9.442932l0 0l0 0c0 7.3753967 -5.9789124 13.35434 -13.354309 13.35434l-81.700806 0c-7.3753967 0 -13.354309 -5.978943 -13.354309 -13.35434z" fill-rule="evenodd"/><path fill="#000000" fill-opacity="0.0" d="m159.8924 342.89633l54.204712 0l0 26.708649l54.204742 0" fill-rule="evenodd"/><path stroke="#000000" stroke-width="1.0" stroke-linejoin="round" stroke-linecap="butt" d="m159.8924 342.89633l54.204712 0l0 26.708649l54.204742 0" fill-rule="evenodd"/><path fill="#000000" fill-opacity="0.0" d="m159.8924 396.31366l54.204712 0l0 -26.70868l54.204742 0" fill-rule="evenodd"/><path stroke="#000000" stroke-width="1.0" stroke-linejoin="round" stroke-linecap="butt" d="m159.8924 396.31366l54.204712 0l0 -26.70868l54.204742 0" fill-rule="evenodd"/><path fill="#000000" fill-opacity="0.0" d="m51.48294 476.43964l0 0c0 -7.3753967 5.9789352 -13.35434 13.354332 -13.35434l81.70078 0c3.5417938 0 6.9385223 1.4069824 9.442947 3.9114075c2.5044098 2.504425 3.9113922 5.9011536 3.9113922 9.442932l0 0l0 0c0 7.3753967 -5.978943 13.35434 -13.35434 13.35434l-81.70078 0c-7.3753967 0 -13.354332 -5.978943 -13.354332 -13.35434z" fill-rule="evenodd"/><path stroke="#000000" stroke-width="1.0" stroke-linejoin="round" stroke-linecap="butt" d="m51.48294 476.43964l0 0c0 -7.3753967 5.9789352 -13.35434 13.354332 -13.35434l81.70078 0c3.5417938 0 6.9385223 1.4069824 9.442947 3.9114075c2.5044098 2.504425 3.9113922 5.9011536 3.9113922 9.442932l0 0l0 0c0 7.3753967 -5.978943 13.35434 -13.35434 13.35434l-81.70078 0c-7.3753967 0 -13.354332 -5.978943 -13.354332 -13.35434z" fill-rule="evenodd"/><path fill="#000000" d="m75.870766 481.11087l0 1.46875l-8.1875 0q-0.03125 -0.546875 0.171875 -1.0625q0.3125 -0.828125 1.0 -1.640625q0.6875 -0.8125 2.0 -1.875q2.015625 -1.671875 2.71875 -2.640625q0.71875 -0.96875 0.71875 -1.828125q0 -0.90625 -0.65625 -1.515625q-0.640625 -0.625 -1.671875 -0.625q-1.109375 0 -1.765625 0.65625q-0.65625 0.65625 -0.671875 1.828125l-1.5625 -0.15625q0.15625 -1.765625 1.203125 -2.671875q1.0625 -0.921875 2.828125 -0.921875q1.78125 0 2.8125 1.0q1.046875 0.984375 1.046875 2.4375q0 0.75 -0.3125 1.46875q-0.296875 0.71875 -1.0 1.515625q-0.703125 0.796875 -2.34375 2.1875q-1.375 1.140625 -1.765625 1.5625q-0.390625 0.40625 -0.640625 0.8125l6.078125 0zm2.05896 1.46875l0 -8.984375l1.375 0l0 1.28125q0.984375 -1.484375 2.859375 -1.484375q0.8125 0 1.484375 0.296875q0.6875 0.28125 1.015625 0.765625q0.34375 0.46875 0.484375 1.125q0.078125 0.421875 0.078125 1.46875l0 5.53125l-1.515625 0l0 -5.46875q0 -0.921875 -0.1875 -1.375q-0.171875 -0.46875 -0.625 -0.75q-0.453125 -0.28125 -1.0625 -0.28125q-0.96875 0 -1.671875 0.625q-0.703125 0.609375 -0.703125 2.34375l0 4.90625l-1.53125 0zm15.46521 0l0 -1.140625q-0.84375 1.34375 -2.515625 1.34375q-1.0625 0 -1.96875 -0.59375q-0.90625 -0.59375 -1.40625 -1.65625q-0.484375 -1.0625 -0.484375 -2.4375q0 -1.34375 0.4375 -2.4375q0.453125 -1.09375 1.34375 -1.671875q0.90625 -0.59375 2.015625 -0.59375q0.8125 0 1.4375 0.34375q0.640625 0.34375 1.046875 0.890625l0 -4.453125l1.515625 0l0 12.40625l-1.421875 0zm-4.8125 -4.484375q0 1.71875 0.71875 2.578125q0.734375 0.859375 1.734375 0.859375q0.984375 0 1.6875 -0.8125q0.703125 -0.828125 0.703125 -2.5q0 -1.84375 -0.71875 -2.703125q-0.703125 -0.859375 -1.75 -0.859375q-1.015625 0 -1.703125 0.828125q-0.671875 0.828125 -0.671875 2.609375zm13.638901 4.484375l0 -12.40625l4.671875 0q1.234375 0 1.890625 0.125q0.90625 0.140625 1.515625 0.578125q0.625 0.421875 1.0 1.203125q0.390625 0.765625 0.390625 1.6875q0 1.578125 -1.015625 2.671875q-1.0 1.09375 -3.640625 1.09375l-3.171875 0l0 5.046875l-1.640625 0zm1.640625 -6.5l3.203125 0q1.59375 0 2.25 -0.59375q0.671875 -0.59375 0.671875 -1.671875q0 -0.78125 -0.390625 -1.328125q-0.390625 -0.5625 -1.03125 -0.734375q-0.421875 -0.109375 -1.53125 -0.109375l-3.171875 0l0 4.4375zm9.682724 6.5l0 -12.40625l1.515625 0l0 12.40625l-1.515625 0zm9.740387 -1.109375q-0.84375 0.71875 -1.625 1.015625q-0.78125 0.296875 -1.671875 0.296875q-1.484375 0 -2.28125 -0.71875q-0.796875 -0.734375 -0.796875 -1.859375q0 -0.65625 0.296875 -1.203125q0.3125 -0.546875 0.796875 -0.875q0.484375 -0.328125 1.09375 -0.5q0.4375 -0.109375 1.34375 -0.21875q1.84375 -0.21875 2.71875 -0.53125q0.015625 -0.3125 0.015625 -0.390625q0 -0.9375 -0.4375 -1.3125q-0.578125 -0.515625 -1.734375 -0.515625q-1.078125 0 -1.59375 0.375q-0.5 0.375 -0.75 1.328125l-1.484375 -0.203125q0.203125 -0.953125 0.65625 -1.53125q0.46875 -0.59375 1.34375 -0.90625q0.890625 -0.328125 2.046875 -0.328125q1.15625 0 1.875 0.28125q0.71875 0.265625 1.046875 0.671875q0.34375 0.40625 0.484375 1.03125q0.078125 0.390625 0.078125 1.40625l0 2.03125q0 2.125 0.09375 2.6875q0.09375 0.5625 0.390625 1.078125l-1.59375 0q-0.234375 -0.46875 -0.3125 -1.109375zm-0.125 -3.40625q-0.828125 0.34375 -2.484375 0.578125q-0.9375 0.140625 -1.328125 0.3125q-0.390625 0.171875 -0.609375 0.5q-0.203125 0.3125 -0.203125 0.71875q0 0.609375 0.453125 1.015625q0.46875 0.40625 1.359375 0.40625q0.875 0 1.5625 -0.390625q0.6875 -0.390625 1.015625 -1.046875q0.234375 -0.515625 0.234375 -1.53125l0 -0.5625zm9.762093 1.21875l1.5 0.203125q-0.234375 1.546875 -1.25 2.421875q-1.015625 0.875 -2.484375 0.875q-1.84375 0 -2.9687576 -1.203125q-1.125 -1.203125 -1.125 -3.453125q0 -1.46875 0.484375 -2.546875q0.484375 -1.09375 1.4687576 -1.640625q0.984375 -0.546875 2.140625 -0.546875q1.46875 0 2.390625 0.75q0.9375 0.734375 1.203125 2.09375l-1.484375 0.21875q-0.203125 -0.890625 -0.75 -1.34375q-0.53125 -0.46875 -1.296875 -0.46875q-1.140625 0 -1.875 0.828125q-0.71875 0.828125 -0.71875 2.609375q0 1.8125 0.6875 2.640625q0.703125 0.8125 1.828125 0.8125q0.890625 0 1.484375 -0.546875q0.609375 -0.5625 0.765625 -1.703125zm8.9609375 0.40625l1.5625 0.1875q-0.359375 1.390625 -1.375 2.15625q-1.0 0.75 -2.5625 0.75q-1.984375 0 -3.140625 -1.203125q-1.140625 -1.21875 -1.140625 -3.421875q0 -2.265625 1.15625 -3.515625q1.171875 -1.25 3.03125 -1.25q1.8125 0 2.953125 1.234375q1.140625 1.21875 1.140625 3.4375q0 0.140625 -0.015625 0.40625l-6.703125 0q0.09375 1.484375 0.84375 2.28125q0.75 0.78125 1.875 0.78125q0.84375 0 1.4375 -0.4375q0.59375 -0.4375 0.9375 -1.40625zm-5.0 -2.46875l5.015625 0q-0.109375 -1.125 -0.578125 -1.703125q-0.734375 -0.875 -1.890625 -0.875q-1.046875 0 -1.765625 0.703125q-0.703125 0.703125 -0.78125 1.875z" fill-rule="nonzero"/><path fill="#000000" fill-opacity="0.0" d="m51.48294 529.85693l0 0c0 -7.375366 5.9789352 -13.354309 13.354332 -13.354309l81.70078 0c3.5417938 0 6.9385223 1.4069824 9.442947 3.911377c2.5044098 2.5044556 3.9113922 5.901184 3.9113922 9.442932l0 0l0 0c0 7.3754272 -5.978943 13.35437 -13.35434 13.35437l-81.70078 0c-7.3753967 0 -13.354332 -5.978943 -13.354332 -13.35437z" fill-rule="evenodd"/><path stroke="#000000" stroke-width="1.0" stroke-linejoin="round" stroke-linecap="butt" d="m51.48294 529.85693l0 0c0 -7.375366 5.9789352 -13.354309 13.354332 -13.354309l81.70078 0c3.5417938 0 6.9385223 1.4069824 9.442947 3.911377c2.5044098 2.5044556 3.9113922 5.901184 3.9113922 9.442932l0 0l0 0c0 7.3754272 -5.978943 13.35437 -13.35434 13.35437l-81.70078 0c-7.3753967 0 -13.354332 -5.978943 -13.354332 -13.35437z" fill-rule="evenodd"/><path fill="#000000" d="m70.391525 525.2157l0 -1.46875l8.015625 0l0 1.1875q-1.171875 1.265625 -2.34375 3.359375q-1.15625 2.078125 -1.796875 4.296875q-0.453125 1.546875 -0.578125 3.40625l-1.5625 0q0.015625 -1.46875 0.5625 -3.53125q0.5625 -2.078125 1.578125 -4.0q1.03125 -1.921875 2.1875 -3.25l-6.0625 0zm13.27771 9.421875l0.21875 1.34375q-0.640625 0.140625 -1.15625 0.140625q-0.828125 0 -1.28125 -0.265625q-0.453125 -0.265625 -0.640625 -0.6875q-0.1875 -0.4375 -0.1875 -1.796875l0 -5.171875l-1.125 0l0 -1.1875l1.125 0l0 -2.21875l1.515625 -0.921875l0 3.140625l1.53125 0l0 1.1875l-1.53125 0l0 5.25q0 0.65625 0.078125 0.84375q0.078125 0.1875 0.25 0.296875q0.1875 0.109375 0.53125 0.109375q0.25 0 0.671875 -0.0625zm1.4861908 1.359375l0 -12.40625l1.53125 0l0 4.453125q1.0625 -1.234375 2.6875 -1.234375q1.0 0 1.734375 0.390625q0.734375 0.390625 1.046875 1.09375q0.328125 0.6875 0.328125 2.015625l0 5.6875l-1.53125 0l0 -5.6875q0 -1.15625 -0.5 -1.671875q-0.484375 -0.515625 -1.390625 -0.515625q-0.6875 0 -1.28125 0.359375q-0.59375 0.34375 -0.84375 0.953125q-0.25 0.59375 -0.25 1.640625l0 4.921875l-1.53125 0zm14.654526 0l0 -12.40625l4.671875 0q1.234375 0 1.890625 0.125q0.90625 0.140625 1.515625 0.578125q0.625 0.421875 1.0 1.203125q0.390625 0.765625 0.390625 1.6875q0 1.578125 -1.015625 2.671875q-1.0 1.09375 -3.640625 1.09375l-3.171875 0l0 5.046875l-1.640625 0zm1.640625 -6.5l3.203125 0q1.59375 0 2.25 -0.59375q0.671875 -0.59375 0.671875 -1.671875q0 -0.78125 -0.390625 -1.328125q-0.390625 -0.5625 -1.03125 -0.734375q-0.421875 -0.109375 -1.53125 -0.109375l-3.171875 0l0 4.4375zm9.682724 6.5l0 -12.40625l1.515625 0l0 12.40625l-1.515625 0zm9.740387 -1.109375q-0.84375 0.71875 -1.625 1.015625q-0.78125 0.296875 -1.671875 0.296875q-1.484375 0 -2.28125 -0.71875q-0.796875 -0.734375 -0.796875 -1.859375q0 -0.65625 0.296875 -1.203125q0.3125 -0.546875 0.796875 -0.875q0.484375 -0.328125 1.09375 -0.5q0.4375 -0.109375 1.34375 -0.21875q1.84375 -0.21875 2.71875 -0.53125q0.015625 -0.3125 0.015625 -0.390625q0 -0.9375 -0.4375 -1.3125q-0.578125 -0.515625 -1.734375 -0.515625q-1.078125 0 -1.59375 0.375q-0.5 0.375 -0.75 1.328125l-1.484375 -0.203125q0.203125 -0.953125 0.65625 -1.53125q0.46875 -0.59375 1.34375 -0.90625q0.890625 -0.328125 2.046875 -0.328125q1.15625 0 1.875 0.28125q0.71875 0.265625 1.046875 0.671875q0.34375 0.40625 0.484375 1.03125q0.078125 0.390625 0.078125 1.40625l0 2.03125q0 2.125 0.09375 2.6875q0.09375 0.5625 0.390625 1.078125l-1.59375 0q-0.234375 -0.46875 -0.3125 -1.109375zm-0.125 -3.40625q-0.828125 0.34375 -2.484375 0.578125q-0.9375 0.140625 -1.328125 0.3125q-0.390625 0.171875 -0.609375 0.5q-0.203125 0.3125 -0.203125 0.71875q0 0.609375 0.453125 1.015625q0.46875 0.40625 1.359375 0.40625q0.875 0 1.5625 -0.390625q0.6875 -0.390625 1.015625 -1.046875q0.234375 -0.515625 0.234375 -1.53125l0 -0.5625zm9.762085 1.21875l1.5 0.203125q-0.234375 1.546875 -1.25 2.421875q-1.015625 0.875 -2.484375 0.875q-1.84375 0 -2.96875 -1.203125q-1.125 -1.203125 -1.125 -3.453125q0 -1.46875 0.484375 -2.546875q0.484375 -1.09375 1.46875 -1.640625q0.984375 -0.546875 2.140625 -0.546875q1.46875 0 2.390625 0.75q0.9375 0.734375 1.203125 2.09375l-1.484375 0.21875q-0.203125 -0.890625 -0.75 -1.34375q-0.53125 -0.46875 -1.296875 -0.46875q-1.140625 0 -1.875 0.828125q-0.71875 0.828125 -0.71875 2.609375q0 1.8125 0.6875 2.640625q0.703125 0.8125 1.828125 0.8125q0.890625 0 1.484375 -0.546875q0.609375 -0.5625 0.765625 -1.703125zm8.9609375 0.40625l1.5625 0.1875q-0.359375 1.390625 -1.375 2.15625q-1.0 0.75 -2.5625 0.75q-1.984375 0 -3.140625 -1.203125q-1.140625 -1.21875 -1.140625 -3.421875q0 -2.265625 1.15625 -3.515625q1.171875 -1.25 3.03125 -1.25q1.8125 0 2.953125 1.234375q1.140625 1.21875 1.140625 3.4375q0 0.140625 -0.015625 0.40625l-6.703125 0q0.09375 1.484375 0.84375 2.28125q0.75 0.78125 1.875 0.78125q0.84375 0 1.4375 -0.4375q0.59375 -0.4375 0.9375 -1.40625zm-5.0 -2.46875l5.015625 0q-0.109375 -1.125 -0.578125 -1.703125q-0.734375 -0.875 -1.890625 -0.875q-1.046875 0 -1.765625 0.703125q-0.703125 0.703125 -0.78125 1.875z" fill-rule="nonzero"/><path fill="#000000" fill-opacity="0.0" d="m268.30185 503.1483l0 0c0 -7.3753967 5.9789124 -13.354309 13.354309 -13.354309l81.700806 0c3.5417786 0 6.938507 1.4069519 9.442932 3.911377c2.504425 2.504425 3.911377 5.9011536 3.911377 9.442932l0 0l0 0c0 7.3753967 -5.9789124 13.35434 -13.354309 13.35434l-81.700806 0c-7.3753967 0 -13.354309 -5.978943 -13.354309 -13.35434z" fill-rule="evenodd"/><path stroke="#000000" stroke-width="1.0" stroke-linejoin="round" stroke-linecap="butt" d="m268.30185 503.1483l0 0c0 -7.3753967 5.9789124 -13.354309 13.354309 -13.354309l81.700806 0c3.5417786 0 6.938507 1.4069519 9.442932 3.911377c2.504425 2.504425 3.911377 5.9011536 3.911377 9.442932l0 0l0 0c0 7.3753967 -5.9789124 13.35434 -13.354309 13.35434l-81.700806 0c-7.3753967 0 -13.354309 -5.978943 -13.354309 -13.35434z" fill-rule="evenodd"/><path fill="#000000" fill-opacity="0.0" d="m159.8924 476.43964l54.204712 0l0 26.708649l54.204742 0" fill-rule="evenodd"/><path stroke="#000000" stroke-width="1.0" stroke-linejoin="round" stroke-linecap="butt" d="m159.8924 476.43964l54.204712 0l0 26.708649l54.204742 0" fill-rule="evenodd"/><path fill="#000000" fill-opacity="0.0" d="m159.8924 529.85693l54.204712 0l0 -26.708649l54.204742 0" fill-rule="evenodd"/><path stroke="#000000" stroke-width="1.0" stroke-linejoin="round" stroke-linecap="butt" d="m159.8924 529.85693l54.204712 0l0 -26.708649l54.204742 0" fill-rule="evenodd"/><path fill="#000000" fill-opacity="0.0" d="m485.12073 169.29002l0 0c0 -7.3753967 5.978943 -13.354324 13.35434 -13.354324l81.700775 0c3.541809 0 6.9385376 1.4069672 9.442932 3.9113922c2.5044556 2.504425 3.911438 5.9011383 3.911438 9.442932l0 0l0 0c0 7.3753967 -5.978943 13.35434 -13.35437 13.35434l-81.700775 0c-7.3753967 0 -13.35434 -5.978943 -13.35434 -13.35434z" fill-rule="evenodd"/><path stroke="#000000" stroke-width="1.0" stroke-linejoin="round" stroke-linecap="butt" d="m485.12073 169.29002l0 0c0 -7.3753967 5.978943 -13.354324 13.35434 -13.354324l81.700775 0c3.541809 0 6.9385376 1.4069672 9.442932 3.9113922c2.5044556 2.504425 3.911438 5.9011383 3.911438 9.442932l0 0l0 0c0 7.3753967 -5.978943 13.35434 -13.35437 13.35434l-81.700775 0c-7.3753967 0 -13.35434 -5.978943 -13.35434 -13.35434z" fill-rule="evenodd"/><path fill="#000000" fill-opacity="0.0" d="m376.71127 102.51837l54.204742 0l0 66.77165l54.204712 0" fill-rule="evenodd"/><path stroke="#000000" stroke-width="1.0" stroke-linejoin="round" stroke-linecap="butt" d="m376.71127 102.51837l54.204742 0l0 66.77165l54.204712 0" fill-rule="evenodd"/><path fill="#000000" fill-opacity="0.0" d="m376.71127 236.06168l54.204742 0l0 -66.77165l54.204712 0" fill-rule="evenodd"/><path stroke="#000000" stroke-width="1.0" stroke-linejoin="round" stroke-linecap="butt" d="m376.71127 236.06168l54.204742 0l0 -66.77165l54.204712 0" fill-rule="evenodd"/><path fill="#000000" fill-opacity="0.0" d="m485.12073 436.37665l0 0c0 -7.3753967 5.978943 -13.35434 13.35434 -13.35434l81.700775 0c3.541809 0 6.9385376 1.4069824 9.442932 3.9114075c2.5044556 2.5043945 3.911438 5.901123 3.911438 9.442932l0 0l0 0c0 7.3753967 -5.978943 13.354309 -13.35437 13.354309l-81.700775 0c-7.3753967 0 -13.35434 -5.9789124 -13.35434 -13.354309z" fill-rule="evenodd"/><path stroke="#000000" stroke-width="1.0" stroke-linejoin="round" stroke-linecap="butt" d="m485.12073 436.37665l0 0c0 -7.3753967 5.978943 -13.35434 13.35434 -13.35434l81.700775 0c3.541809 0 6.9385376 1.4069824 9.442932 3.9114075c2.5044556 2.5043945 3.911438 5.901123 3.911438 9.442932l0 0l0 0c0 7.3753967 -5.978943 13.354309 -13.35437 13.354309l-81.700775 0c-7.3753967 0 -13.35434 -5.9789124 -13.35434 -13.354309z" fill-rule="evenodd"/><path fill="#000000" fill-opacity="0.0" d="m376.71127 369.60498l54.204742 0l0 66.77167l54.204712 0" fill-rule="evenodd"/><path stroke="#000000" stroke-width="1.0" stroke-linejoin="round" stroke-linecap="butt" d="m376.71127 369.60498l54.204742 0l0 66.77167l54.204712 0" fill-rule="evenodd"/><path fill="#000000" fill-opacity="0.0" d="m376.71127 503.1483l54.204742 0l0 -66.77164l54.204712 0" fill-rule="evenodd"/><path stroke="#000000" stroke-width="1.0" stroke-linejoin="round" stroke-linecap="butt" d="m376.71127 503.1483l54.204742 0l0 -66.77164l54.204712 0" fill-rule="evenodd"/><path fill="#000000" fill-opacity="0.0" d="m701.93964 302.83334l0 0c0 -7.3753967 5.978943 -13.35434 13.354309 -13.35434l81.700806 0c3.541809 0 6.9385376 1.4069824 9.442932 3.911377c2.5044556 2.504425 3.911377 5.9011536 3.911377 9.442963l0 0l0 0c0 7.3753967 -5.978943 13.354309 -13.354309 13.354309l-81.700806 0c-7.375366 0 -13.354309 -5.9789124 -13.354309 -13.354309z" fill-rule="evenodd"/><path stroke="#000000" stroke-width="1.0" stroke-linejoin="round" stroke-linecap="butt" d="m701.93964 302.83334l0 0c0 -7.3753967 5.978943 -13.35434 13.354309 -13.35434l81.700806 0c3.541809 0 6.9385376 1.4069824 9.442932 3.911377c2.5044556 2.504425 3.911377 5.9011536 3.911377 9.442963l0 0l0 0c0 7.3753967 -5.978943 13.354309 -13.354309 13.354309l-81.700806 0c-7.375366 0 -13.354309 -5.9789124 -13.354309 -13.354309z" fill-rule="evenodd"/><path fill="#000000" fill-opacity="0.0" d="m593.5302 169.29002l54.204712 0l0 133.54332l54.204712 0" fill-rule="evenodd"/><path stroke="#000000" stroke-width="1.0" stroke-linejoin="round" stroke-linecap="butt" d="m593.5302 169.29002l54.204712 0l0 133.54332l54.204712 0" fill-rule="evenodd"/><path fill="#000000" fill-opacity="0.0" d="m593.5302 436.37665l54.204712 0l0 -133.5433l54.204712 0" fill-rule="evenodd"/><path stroke="#000000" stroke-width="1.0" stroke-linejoin="round" stroke-linecap="butt" d="m593.5302 436.37665l54.204712 0l0 -133.5433l54.204712 0" fill-rule="evenodd"/></g></svg>